PathFileType	4	(X/Y/Z)	./resultDataOpenSim/trcMotMarkerGrf/sub09/qtm-13-07.trc
DataRate	CameraRate	NumFrames	NumMarkers	Units	OrigDataRate	OrigDataStartFrame	OrigNumFrames
250.000000	250.000000	10	24	m	250.000000	302	483
Frame#	Time	L.Toe.Tip			R.Toe.Tip			L.Ankle.Lat			R.Ankle.Lat			L.Ankle.Med			R.Ankle.Med			L.Heel			R.Heel			L.Knee.Lat			R.Knee.Lat			L.Knee.Med			R.Knee.Med			L.Thigh.Upper			R.Thigh.Upper			L.ASIS			R.ASIS			V.Sacral			L.Acromium			R.Acromium			C7			L.Elbow			R.Elbow			L.Wrist.Lat			R.Wrist.Lat
		X1	Y1	Z1	X2	Y2	Z2	X3	Y3	Z3	X4	Y4	Z4	X5	Y5	Z5	X6	Y6	Z6	X7	Y7	Z7	X8	Y8	Z8	X9	Y9	Z9	X10	Y10	Z10	X11	Y11	Z11	X12	Y12	Z12	X13	Y13	Z13	X14	Y14	Z14	X15	Y15	Z15	X16	Y16	Z16	X17	Y17	Z17	X18	Y18	Z18	X19	Y19	Z19	X20	Y20	Z20	X21	Y21	Z21	X22	Y22	Z22	X23	Y23	Z23	X24	Y24	Z24

302	1.204	0.18546498	-0.0052841382	-0.022334339	1.0734155	0.041626137	0.05200263	0.112131	0.12592015	-0.088712328	0.92674398	0.0528918	0.094244589	0.14674498	0.12848768	0.0032881363	0.92721696	0.091329673	0.0020019091	0.044663842	0.15111027	-0.041744612	0.85618365	0.031705675	0.049232181	0.41247235	0.42600115	-0.13077715	0.8864348	0.51000528	0.14684673	0.4242932	0.41249467	-0.0068993703	0.86577548	0.49120295	0.023738518	0.56131733	0.80626815	-0.15103324	0.63971252	0.82667436	0.21512916	0.67604581	0.87789676	-0.11248748	0.70481541	0.90713172	0.12664636	0.52849831	0.95122124	0.025992315	0.70923092	1.3403667	-0.14829493	0.67882095	1.3516819	0.18316693	0.62749972	1.3997353	0.013686475	0.585602	0.97876466	-0.20585037	0.4995318	1.0429493	0.25190515	0.81837019	0.83905143	-0.18469162	0.55506676	0.78794758	0.33048495
303	1.208	0.18714392	-0.0040471341	-0.0230595	1.0739086	0.041237436	0.051547685	0.11775886	0.12946594	-0.090231849	0.92710793	0.052805045	0.093909916	0.15264695	0.1313813	0.0016692451	0.92745424	0.091122662	0.0017326925	0.051357528	0.1565513	-0.043104773	0.85641041	0.031768346	0.049331007	0.42345542	0.42439847	-0.13213433	0.8935704	0.50991788	0.14648353	0.43487867	0.41013283	-0.0082702442	0.87311658	0.49196988	0.023142849	0.56938035	0.80538993	-0.15062824	0.64705274	0.82756228	0.21566064	0.683946	0.8776489	-0.11113855	0.71202572	0.90824817	0.12736663	0.53449091	0.95146676	0.025750886	0.71682263	1.3403067	-0.14799664	0.68582379	1.3518986	0.18336167	0.63452196	1.3997972	0.013386186	0.59224528	0.97918756	-0.20555517	0.50759286	1.0424015	0.25197546	0.82363344	0.83713214	-0.18490838	0.56430115	0.78762962	0.33055602
304	1.212	0.18901522	-0.0026277514	-0.02380727	1.0743508	0.040906635	0.051501051	0.12380985	0.13322931	-0.091612457	0.92734713	0.052653943	0.093647917	0.15872491	0.13448685	0.00025277244	0.9276713	0.090976619	0.0015164327	0.058447453	0.16218581	-0.044481872	0.85659985	0.031807007	0.049355628	0.43475706	0.4227985	-0.13350959	0.90036623	0.50971305	0.14619228	0.44579477	0.40776813	-0.0096301399	0.88028911	0.49269258	0.022486573	0.57738123	0.80458595	-0.1501423	0.65446302	0.82849557	0.21619102	0.69148223	0.8775173	-0.10987597	0.71916832	0.90934022	0.12805509	0.54069621	0.95178994	0.025589758	0.72440717	1.3403139	-0.14769216	0.69280075	1.3521806	0.1835372	0.64153947	1.399956	0.013127514	0.59891054	0.97971241	-0.20526448	0.51561229	1.0418918	0.25204384	0.8287973	0.83517719	-0.18512443	0.57361648	0.78737197	0.33060733
305	1.216	0.1911116	-0.001029557	-0.024561261	1.0747213	0.040652105	0.051554846	0.13028657	0.13713997	-0.092853576	0.9276126	0.052518699	0.093428708	0.16501804	0.1377581	-0.00096391643	0.92796698	0.090899862	0.0012827521	0.065937503	0.16796513	-0.045871441	0.85677205	0.031844219	0.049287512	0.44620583	0.42120844	-0.13483744	0.90681427	0.50942918	0.14597002	0.45705232	0.40545837	-0.010923091	0.8872116	0.49332415	0.02181664	0.58530842	0.8038644	-0.14958175	0.66189209	0.82946608	0.21671638	0.69861358	0.87745771	-0.1088476	0.72623802	0.91035422	0.12871367	0.54747845	0.95213021	0.025694354	0.73195929	1.3403893	-0.14738929	0.69976492	1.3525182	0.18368875	0.64856034	1.400202	0.013031293	0.60562762	0.98029593	-0.2050099	0.52354125	1.0414354	0.25211382	0.83386957	0.83319041	-0.185343	0.58303183	0.78717489	0.33064466
306	1.22	0.19346877	0.00074894281	-0.025312762	1.0750074	0.040458577	0.051414401	0.1371852	0.14113265	-0.0939657	0.92797887	0.052429995	0.093236746	0.1716354	0.14114781	-0.0020205899	0.92835577	0.090867708	0.0010092046	0.073822902	0.17384978	-0.047253408	0.85691623	0.031881684	0.049177634	0.45769653	0.41959921	-0.13606418	0.91292698	0.50912088	0.14574813	0.4686329	0.40324448	-0.012112921	0.89380348	0.4938189	0.021162964	0.5931484	0.80324412	-0.14895044	0.66930585	0.83047833	0.21724926	0.70547003	0.87748297	-0.10806124	0.73322344	0.91126467	0.12934323	0.55467516	0.95251272	0.026036896	0.73945383	1.3405382	-0.14709193	0.70671324	1.352914	0.18381772	0.6554983	1.4005623	0.013039858	0.61240527	0.98091204	-0.20480731	0.53133494	1.0410504	0.25220179	0.83885999	0.83118398	-0.18556295	0.59252199	0.78704223	0.33065115
307	1.224	0.19611205	0.0027098708	-0.026057589	1.0752121	0.040304989	0.051044456	0.14449118	0.14517058	-0.094955537	0.92842015	0.052367316	0.09306295	0.17866157	0.14462279	-0.0029479647	0.92876386	0.090830634	0.00071021909	0.082099067	0.17981821	-0.048594803	0.85701197	0.03190857	0.049073578	0.46928306	0.41794134	-0.13718108	0.91874565	0.50881784	0.14545683	0.48044622	0.40114503	-0.013176764	0.89999722	0.49415242	0.020553847	0.60088724	0.80274414	-0.14825277	0.67669083	0.83153125	0.21780682	0.71217495	0.87764242	-0.10742848	0.74011442	0.91207468	0.12994227	0.56195124	0.95298388	0.026509915	0.74686871	1.340772	-0.14680195	0.71362565	1.3533812	0.18392695	0.66230218	1.4010456	0.013059647	0.61923363	0.98156149	-0.20464858	0.53902561	1.040748	0.25234432	0.84377222	0.82917719	-0.18579317	0.60206021	0.78698517	0.33060719
308	1.228	0.19904602	0.0048497221	-0.026791193	1.0753404	0.040182444	0.050636769	0.15217266	0.14924334	-0.095818784	0.9288215	0.052317656	0.092917331	0.18610487	0.14816764	-0.003749609	0.92909766	0.090756816	0.00042440141	0.090771482	0.18586179	-0.049852581	0.85704899	0.031917803	0.04899295	0.48107098	0.41623103	-0.1381976	0.92434416	0.50852536	0.14510291	0.49239656	0.39917957	-0.014105499	0.90574265	0.49432509	0.020024208	0.60851152	0.80237299	-0.1475035	0.68401588	0.83259334	0.21838412	0.71880048	0.87796995	-0.10686161	0.74690992	0.9128032	0.13050932	0.56908221	0.95356351	0.027030499	0.75418191	1.3411026	-0.14652607	0.72048415	1.3539335	0.18401614	0.66903256	1.4016165	0.013050756	0.6261015	0.98225925	-0.20451932	0.5467259	1.0405267	0.25258185	0.84861391	0.82719616	-0.18606559	0.6116792	0.78702513	0.33052656
309	1.232	0.20225032	0.0071554147	-0.027507745	1.0753996	0.04008845	0.050370298	0.16019752	0.15334333	-0.096552673	0.92906824	0.052291798	0.092820585	0.1939409	0.15176907	-0.00441903	0.92931163	0.090656705	0.00019893628	0.099851115	0.19197078	-0.050986678	0.85703352	0.031912719	0.048943505	0.49310834	0.41449574	-0.13912318	0.92979274	0.5082637	0.14476028	0.50441472	0.39737513	-0.014897754	0.91101562	0.49435287	0.019602147	0.61600739	0.80213039	-0.14674219	0.69122432	0.83361238	0.21895097	0.72538048	0.87846075	-0.10631496	0.75361423	0.91347198	0.13104527	0.57600107	0.95424914	0.027556616	0.76137438	1.3415306	-0.14627009	0.72728582	1.354576	0.18408405	0.67575346	1.4022489	0.013013723	0.6329994	0.9830197	-0.20440753	0.55450971	1.0403695	0.25293641	0.85340511	0.82526136	-0.1864191	0.62148817	0.78719756	0.33046616
310	1.236	0.20568578	0.0096044483	-0.028203249	1.0754039	0.040016886	0.050265493	0.1685921	0.15746496	-0.097183351	0.92913727	0.052293946	0.092776131	0.20214945	0.15540144	-0.0049568023	0.92941873	0.090563906	6.6639062e-05	0.10934104	0.19812464	-0.051977715	0.85698242	0.031900588	0.048936359	0.50539444	0.41278402	-0.13996586	0.93510753	0.50806288	0.14449606	0.51640436	0.39575261	-0.01554374	0.91583432	0.49426199	0.019297446	0.62335565	0.80201984	-0.14601965	0.69827964	0.83455561	0.21948317	0.73192137	0.87908822	-0.10577976	0.76023025	0.91410362	0.13155422	0.5827465	0.95503539	0.028076384	0.76843859	1.3420451	-0.14603026	0.73403785	1.355302	0.18413187	0.6824424	1.4029578	0.012977901	0.63991684	0.98384744	-0.20430183	0.56234325	1.0402587	0.25339242	0.85816374	0.82336802	-0.18685428	0.63159841	0.78754101	0.33048516
311	1.24	0.20930927	0.012177208	-0.028874752	1.0753726	0.039958366	0.050249323	0.17745298	0.16161758	-0.097773981	0.92909411	0.052307251	0.092762378	0.21071031	0.15903396	-0.0053774064	0.92946137	0.090502534	3.0303366e-05	0.11923768	0.20430045	-0.052830001	0.85691476	0.031884693	0.048975087	0.51791381	0.41114898	-0.14071936	0.94024044	0.50789879	0.1443276	0.5282625	0.39434268	-0.016028108	0.92026385	0.49408861	0.019105514	0.63053386	0.80205781	-0.14533838	0.70518029	0.83542747	0.21997856	0.73841167	0.87982844	-0.10526753	0.76675455	0.91472384	0.13204194	0.58938785	0.95592029	0.028587493	0.77537453	1.342637	-0.14580013	0.74074607	1.3561028	0.18416245	0.68904853	1.403756	0.012963813	0.64684453	0.9847356	-0.20419365	0.57015735	1.0402032	0.25388635	0.86287418	0.82149013	-0.18731082	0.64197168	0.78805837	0.33056656
